<mxfile host="app.diagrams.net" modified="2024-06-10T23:28:52.970Z" agent="Mozilla/5.0 (Windows NT 10.0; Win64; x64) AppleWebKit/537.36 (KHTML, like Gecko) Chrome/125.0.0.0 Safari/537.36" etag="ml3WbPAip3mDwZctDm0P" version="24.5.2" type="device">
  <diagram name="Страница — 1" id="2Hn0ptm22U0K2LHp_Cf4">
    <mxGraphModel dx="1323" dy="700" grid="1" gridSize="10" guides="1" tooltips="1" connect="1" arrows="1" fold="1" page="1" pageScale="1" pageWidth="827" pageHeight="1169" math="0" shadow="0">
      <root>
        <mxCell id="0" />
        <mxCell id="1" parent="0" />
        <mxCell id="RML3IU_rjjoTA2uPBB0K-4" value="b_bi [7:0]" style="text;html=1;align=center;verticalAlign=middle;whiteSpace=wrap;rounded=0;fontStyle=1;fontFamily=Times New Roman;fontSize=14;" parent="1" vertex="1">
          <mxGeometry x="270" y="330" width="80" height="30" as="geometry" />
        </mxCell>
        <mxCell id="RML3IU_rjjoTA2uPBB0K-5" value="a_bi [7:0]" style="text;html=1;align=center;verticalAlign=middle;whiteSpace=wrap;rounded=0;fontStyle=1;fontFamily=Times New Roman;fontSize=14;" parent="1" vertex="1">
          <mxGeometry x="260" y="600" width="80" height="30" as="geometry" />
        </mxCell>
        <mxCell id="shmEQdJv6tE-2WSASP2i-14" style="edgeStyle=orthogonalEdgeStyle;rounded=0;orthogonalLoop=1;jettySize=auto;html=1;exitX=1;exitY=0.75;exitDx=0;exitDy=0;fontFamily=Times New Roman;" parent="1" edge="1">
          <mxGeometry relative="1" as="geometry">
            <mxPoint x="600" y="280.20000000000005" as="targetPoint" />
            <mxPoint x="480" y="280" as="sourcePoint" />
          </mxGeometry>
        </mxCell>
        <mxCell id="shmEQdJv6tE-2WSASP2i-16" style="edgeStyle=orthogonalEdgeStyle;rounded=0;orthogonalLoop=1;jettySize=auto;html=1;exitX=1;exitY=0.25;exitDx=0;exitDy=0;fontFamily=Times New Roman;" parent="1" source="RML3IU_rjjoTA2uPBB0K-6" edge="1">
          <mxGeometry relative="1" as="geometry">
            <mxPoint x="620" y="165.27272727272725" as="targetPoint" />
          </mxGeometry>
        </mxCell>
        <mxCell id="RML3IU_rjjoTA2uPBB0K-6" value="&lt;font style=&quot;font-size: 14px;&quot;&gt;SQRT&lt;/font&gt;" style="rounded=0;whiteSpace=wrap;html=1;fontFamily=Times New Roman;fontStyle=1;fontSize=14;" parent="1" vertex="1">
          <mxGeometry x="360" y="120" width="120" height="180" as="geometry" />
        </mxCell>
        <mxCell id="RML3IU_rjjoTA2uPBB0K-8" style="edgeStyle=orthogonalEdgeStyle;rounded=0;orthogonalLoop=1;jettySize=auto;html=1;exitX=0.25;exitY=0;exitDx=0;exitDy=0;endArrow=none;endFill=0;startArrow=classicThin;startFill=1;fontSize=14;fontFamily=Times New Roman;" parent="1" edge="1">
          <mxGeometry relative="1" as="geometry">
            <mxPoint x="399.28571428571445" y="350.0000000000001" as="targetPoint" />
            <mxPoint x="399" y="400.0000000000001" as="sourcePoint" />
          </mxGeometry>
        </mxCell>
        <mxCell id="RML3IU_rjjoTA2uPBB0K-9" value="&lt;font style=&quot;font-size: 14px;&quot;&gt;clk_i&lt;/font&gt;" style="edgeLabel;html=1;align=center;verticalAlign=middle;resizable=0;points=[];fontSize=14;fontFamily=Times New Roman;" parent="RML3IU_rjjoTA2uPBB0K-8" vertex="1" connectable="0">
          <mxGeometry x="0.9804" y="-1" relative="1" as="geometry">
            <mxPoint as="offset" />
          </mxGeometry>
        </mxCell>
        <mxCell id="RML3IU_rjjoTA2uPBB0K-71" style="edgeStyle=orthogonalEdgeStyle;rounded=0;orthogonalLoop=1;jettySize=auto;html=1;exitX=1;exitY=0.75;exitDx=0;exitDy=0;entryX=0;entryY=0.25;entryDx=0;entryDy=0;fontFamily=Times New Roman;" parent="1" source="RML3IU_rjjoTA2uPBB0K-7" target="RML3IU_rjjoTA2uPBB0K-21" edge="1">
          <mxGeometry relative="1" as="geometry" />
        </mxCell>
        <mxCell id="shmEQdJv6tE-2WSASP2i-8" style="edgeStyle=orthogonalEdgeStyle;rounded=0;orthogonalLoop=1;jettySize=auto;html=1;exitX=1;exitY=0.25;exitDx=0;exitDy=0;fontFamily=Times New Roman;" parent="1" source="RML3IU_rjjoTA2uPBB0K-7" edge="1">
          <mxGeometry relative="1" as="geometry">
            <mxPoint x="620" y="444.82352941176475" as="targetPoint" />
          </mxGeometry>
        </mxCell>
        <mxCell id="shmEQdJv6tE-2WSASP2i-10" style="edgeStyle=orthogonalEdgeStyle;rounded=0;orthogonalLoop=1;jettySize=auto;html=1;exitX=1;exitY=0.5;exitDx=0;exitDy=0;fontFamily=Times New Roman;" parent="1" source="RML3IU_rjjoTA2uPBB0K-7" edge="1">
          <mxGeometry relative="1" as="geometry">
            <mxPoint x="620" y="489.52941176470586" as="targetPoint" />
          </mxGeometry>
        </mxCell>
        <mxCell id="RML3IU_rjjoTA2uPBB0K-7" value="&lt;font style=&quot;font-size: 14px;&quot;&gt;CBRT&lt;/font&gt;&lt;div&gt;&lt;font style=&quot;font-size: 14px;&quot;&gt;&lt;br&gt;&lt;/font&gt;&lt;/div&gt;&lt;div&gt;&lt;font style=&quot;font-size: 14px;&quot;&gt;1 multiplier&lt;/font&gt;&lt;/div&gt;" style="rounded=0;whiteSpace=wrap;html=1;fontFamily=Times New Roman;fontStyle=1;fontSize=14;" parent="1" vertex="1">
          <mxGeometry x="360" y="400" width="120" height="180" as="geometry" />
        </mxCell>
        <mxCell id="RML3IU_rjjoTA2uPBB0K-10" style="edgeStyle=orthogonalEdgeStyle;rounded=0;orthogonalLoop=1;jettySize=auto;html=1;exitX=0.25;exitY=0;exitDx=0;exitDy=0;endArrow=none;endFill=0;startArrow=classicThin;startFill=1;fontSize=14;fontFamily=Times New Roman;" parent="1" edge="1">
          <mxGeometry relative="1" as="geometry">
            <mxPoint x="397.28571428571445" y="68.00000000000011" as="targetPoint" />
            <mxPoint x="397" y="118" as="sourcePoint" />
          </mxGeometry>
        </mxCell>
        <mxCell id="RML3IU_rjjoTA2uPBB0K-11" value="&lt;font style=&quot;font-size: 14px;&quot;&gt;clk_i&lt;/font&gt;" style="edgeLabel;html=1;align=center;verticalAlign=middle;resizable=0;points=[];fontSize=14;fontFamily=Times New Roman;" parent="RML3IU_rjjoTA2uPBB0K-10" vertex="1" connectable="0">
          <mxGeometry x="0.9804" y="-1" relative="1" as="geometry">
            <mxPoint as="offset" />
          </mxGeometry>
        </mxCell>
        <mxCell id="RML3IU_rjjoTA2uPBB0K-12" style="edgeStyle=orthogonalEdgeStyle;rounded=0;orthogonalLoop=1;jettySize=auto;html=1;exitX=0.25;exitY=0;exitDx=0;exitDy=0;endArrow=none;endFill=0;startArrow=classicThin;startFill=1;fontSize=14;fontFamily=Times New Roman;" parent="1" edge="1">
          <mxGeometry relative="1" as="geometry">
            <mxPoint x="440.28571428571445" y="350.0000000000001" as="targetPoint" />
            <mxPoint x="440" y="400" as="sourcePoint" />
          </mxGeometry>
        </mxCell>
        <mxCell id="RML3IU_rjjoTA2uPBB0K-13" value="rst_i" style="edgeLabel;html=1;align=center;verticalAlign=middle;resizable=0;points=[];fontSize=14;fontFamily=Times New Roman;" parent="RML3IU_rjjoTA2uPBB0K-12" vertex="1" connectable="0">
          <mxGeometry x="0.9804" y="-1" relative="1" as="geometry">
            <mxPoint as="offset" />
          </mxGeometry>
        </mxCell>
        <mxCell id="RML3IU_rjjoTA2uPBB0K-16" style="edgeStyle=orthogonalEdgeStyle;rounded=0;orthogonalLoop=1;jettySize=auto;html=1;exitX=0.25;exitY=0;exitDx=0;exitDy=0;endArrow=none;endFill=0;startArrow=classicThin;startFill=1;fontSize=14;fontFamily=Times New Roman;" parent="1" edge="1">
          <mxGeometry relative="1" as="geometry">
            <mxPoint x="440.28571428571445" y="68.00000000000011" as="targetPoint" />
            <mxPoint x="440" y="118" as="sourcePoint" />
          </mxGeometry>
        </mxCell>
        <mxCell id="RML3IU_rjjoTA2uPBB0K-17" value="rst_i" style="edgeLabel;html=1;align=center;verticalAlign=middle;resizable=0;points=[];fontSize=14;fontFamily=Times New Roman;" parent="RML3IU_rjjoTA2uPBB0K-16" vertex="1" connectable="0">
          <mxGeometry x="0.9804" y="-1" relative="1" as="geometry">
            <mxPoint as="offset" />
          </mxGeometry>
        </mxCell>
        <mxCell id="shmEQdJv6tE-2WSASP2i-39" style="edgeStyle=orthogonalEdgeStyle;rounded=0;orthogonalLoop=1;jettySize=auto;html=1;exitX=1;exitY=0.5;exitDx=0;exitDy=0;fontFamily=Times New Roman;" parent="1" source="RML3IU_rjjoTA2uPBB0K-20" edge="1">
          <mxGeometry relative="1" as="geometry">
            <mxPoint x="1350" y="225.2962962962963" as="targetPoint" />
          </mxGeometry>
        </mxCell>
        <mxCell id="RML3IU_rjjoTA2uPBB0K-20" value="&lt;font style=&quot;font-size: 14px;&quot;&gt;ADDER_1&lt;/font&gt;&lt;div&gt;&lt;font style=&quot;font-size: 14px;&quot;&gt;adder&lt;/font&gt;&lt;/div&gt;" style="rounded=0;whiteSpace=wrap;html=1;fontFamily=Times New Roman;fontStyle=1;fontSize=14;" parent="1" vertex="1">
          <mxGeometry x="1095" y="170" width="120" height="110" as="geometry" />
        </mxCell>
        <mxCell id="shmEQdJv6tE-2WSASP2i-12" style="edgeStyle=orthogonalEdgeStyle;rounded=0;orthogonalLoop=1;jettySize=auto;html=1;exitX=1;exitY=0.5;exitDx=0;exitDy=0;fontFamily=Times New Roman;" parent="1" source="RML3IU_rjjoTA2uPBB0K-21" edge="1">
          <mxGeometry relative="1" as="geometry">
            <mxPoint x="980" y="555.2380952380952" as="targetPoint" />
          </mxGeometry>
        </mxCell>
        <mxCell id="RML3IU_rjjoTA2uPBB0K-21" value="&lt;font style=&quot;font-size: 14px;&quot;&gt;ADDER_2&lt;/font&gt;&lt;div&gt;&lt;font style=&quot;font-size: 14px;&quot;&gt;adder&lt;/font&gt;&lt;/div&gt;" style="rounded=0;whiteSpace=wrap;html=1;fontFamily=Times New Roman;fontStyle=1;fontSize=14;" parent="1" vertex="1">
          <mxGeometry x="710" y="500" width="120" height="110" as="geometry" />
        </mxCell>
        <mxCell id="RML3IU_rjjoTA2uPBB0K-36" value="sum_result1 [15:0]" style="text;html=1;align=center;verticalAlign=middle;resizable=0;points=[];autosize=1;strokeColor=none;fillColor=none;fontFamily=Times New Roman;fontSize=14;" parent="1" vertex="1">
          <mxGeometry x="1215" y="195.00000000000003" width="130" height="30" as="geometry" />
        </mxCell>
        <mxCell id="RML3IU_rjjoTA2uPBB0K-38" value="sum_result2 [15:0]" style="text;html=1;align=center;verticalAlign=middle;resizable=0;points=[];autosize=1;strokeColor=none;fillColor=none;fontFamily=Times New Roman;fontSize=14;" parent="1" vertex="1">
          <mxGeometry x="830" y="530" width="130" height="30" as="geometry" />
        </mxCell>
        <mxCell id="RML3IU_rjjoTA2uPBB0K-44" value="start_sqrt" style="text;html=1;align=center;verticalAlign=middle;resizable=0;points=[];autosize=1;strokeColor=none;fillColor=none;fontFamily=Times New Roman;fontSize=14;" parent="1" vertex="1">
          <mxGeometry x="275" y="220" width="80" height="30" as="geometry" />
        </mxCell>
        <mxCell id="RML3IU_rjjoTA2uPBB0K-51" value="start_cbrt" style="text;html=1;align=center;verticalAlign=middle;resizable=0;points=[];autosize=1;strokeColor=none;fillColor=none;fontFamily=Times New Roman;fontSize=14;" parent="1" vertex="1">
          <mxGeometry x="280" y="507" width="80" height="30" as="geometry" />
        </mxCell>
        <mxCell id="RML3IU_rjjoTA2uPBB0K-52" style="edgeStyle=orthogonalEdgeStyle;rounded=0;orthogonalLoop=1;jettySize=auto;html=1;exitX=0.5;exitY=0;exitDx=0;exitDy=0;entryX=-0.016;entryY=0.888;entryDx=0;entryDy=0;entryPerimeter=0;fontFamily=Times New Roman;fontSize=14;strokeWidth=3;" parent="1" source="RML3IU_rjjoTA2uPBB0K-4" target="RML3IU_rjjoTA2uPBB0K-6" edge="1">
          <mxGeometry relative="1" as="geometry">
            <Array as="points">
              <mxPoint x="310" y="280" />
            </Array>
          </mxGeometry>
        </mxCell>
        <mxCell id="RML3IU_rjjoTA2uPBB0K-53" style="edgeStyle=orthogonalEdgeStyle;rounded=0;orthogonalLoop=1;jettySize=auto;html=1;exitX=0.5;exitY=0;exitDx=0;exitDy=0;entryX=0.003;entryY=0.87;entryDx=0;entryDy=0;entryPerimeter=0;fontFamily=Times New Roman;fontSize=14;strokeWidth=3;" parent="1" source="RML3IU_rjjoTA2uPBB0K-5" target="RML3IU_rjjoTA2uPBB0K-7" edge="1">
          <mxGeometry relative="1" as="geometry" />
        </mxCell>
        <mxCell id="RML3IU_rjjoTA2uPBB0K-57" value="square_root_result [3:0]" style="text;html=1;align=center;verticalAlign=middle;resizable=0;points=[];autosize=1;strokeColor=none;fillColor=none;fontFamily=Times New Roman;fontSize=14;" parent="1" vertex="1">
          <mxGeometry x="480" y="129.17000000000002" width="160" height="30" as="geometry" />
        </mxCell>
        <mxCell id="RML3IU_rjjoTA2uPBB0K-59" value="cubic_root_result&amp;nbsp;[2:0]" style="text;html=1;align=center;verticalAlign=middle;resizable=0;points=[];autosize=1;strokeColor=none;fillColor=none;fontFamily=Times New Roman;fontSize=14;" parent="1" vertex="1">
          <mxGeometry x="480" y="410" width="150" height="30" as="geometry" />
        </mxCell>
        <mxCell id="RML3IU_rjjoTA2uPBB0K-61" value="busy_cubic_root" style="text;html=1;align=center;verticalAlign=middle;resizable=0;points=[];autosize=1;strokeColor=none;fillColor=none;fontFamily=Times New Roman;fontSize=14;" parent="1" vertex="1">
          <mxGeometry x="485" y="460" width="120" height="30" as="geometry" />
        </mxCell>
        <mxCell id="RML3IU_rjjoTA2uPBB0K-66" value="busy_square_root" style="text;html=1;align=center;verticalAlign=middle;resizable=0;points=[];autosize=1;strokeColor=none;fillColor=none;fontFamily=Times New Roman;fontSize=14;" parent="1" vertex="1">
          <mxGeometry x="478" y="170" width="120" height="30" as="geometry" />
        </mxCell>
        <mxCell id="RML3IU_rjjoTA2uPBB0K-68" style="edgeStyle=orthogonalEdgeStyle;rounded=0;orthogonalLoop=1;jettySize=auto;html=1;exitX=1;exitY=0.75;exitDx=0;exitDy=0;entryX=0;entryY=0.75;entryDx=0;entryDy=0;fontFamily=Times New Roman;" parent="1" target="RML3IU_rjjoTA2uPBB0K-21" edge="1">
          <mxGeometry relative="1" as="geometry">
            <mxPoint x="620" y="560.2857142857142" as="targetPoint" />
            <mxPoint x="480" y="560" as="sourcePoint" />
            <Array as="points">
              <mxPoint x="480" y="570" />
              <mxPoint x="595" y="570" />
              <mxPoint x="595" y="583" />
            </Array>
          </mxGeometry>
        </mxCell>
        <mxCell id="RML3IU_rjjoTA2uPBB0K-69" value="sum_a2 [7:0]" style="text;html=1;align=center;verticalAlign=middle;resizable=0;points=[];autosize=1;strokeColor=none;fillColor=none;fontFamily=Times New Roman;fontSize=14;" parent="1" vertex="1">
          <mxGeometry x="485" y="507" width="100" height="30" as="geometry" />
        </mxCell>
        <mxCell id="RML3IU_rjjoTA2uPBB0K-70" value="sum_b2 [7:0]" style="text;html=1;align=center;verticalAlign=middle;resizable=0;points=[];autosize=1;strokeColor=none;fillColor=none;fontFamily=Times New Roman;fontSize=14;" parent="1" vertex="1">
          <mxGeometry x="485" y="540" width="100" height="30" as="geometry" />
        </mxCell>
        <mxCell id="RML3IU_rjjoTA2uPBB0K-74" style="edgeStyle=orthogonalEdgeStyle;rounded=0;orthogonalLoop=1;jettySize=auto;html=1;fontFamily=Times New Roman;" parent="1" edge="1">
          <mxGeometry relative="1" as="geometry">
            <mxPoint x="360" y="490" as="targetPoint" />
            <mxPoint x="240" y="490" as="sourcePoint" />
          </mxGeometry>
        </mxCell>
        <mxCell id="shmEQdJv6tE-2WSASP2i-23" style="edgeStyle=orthogonalEdgeStyle;rounded=0;orthogonalLoop=1;jettySize=auto;html=1;exitX=0.5;exitY=0;exitDx=0;exitDy=0;fontFamily=Times New Roman;" parent="1" source="RML3IU_rjjoTA2uPBB0K-76" edge="1">
          <mxGeometry relative="1" as="geometry">
            <mxPoint x="1000" y="109.78260869565219" as="targetPoint" />
          </mxGeometry>
        </mxCell>
        <mxCell id="RML3IU_rjjoTA2uPBB0K-76" value="MX" style="shape=trapezoid;perimeter=trapezoidPerimeter;whiteSpace=wrap;html=1;fixedSize=1;rotation=90;fontFamily=Times New Roman;" parent="1" vertex="1">
          <mxGeometry x="800" y="80" width="120" height="60" as="geometry" />
        </mxCell>
        <mxCell id="shmEQdJv6tE-2WSASP2i-20" style="edgeStyle=orthogonalEdgeStyle;rounded=0;orthogonalLoop=1;jettySize=auto;html=1;exitX=0.75;exitY=0;exitDx=0;exitDy=0;fontFamily=Times New Roman;" parent="1" edge="1">
          <mxGeometry relative="1" as="geometry">
            <mxPoint x="970" y="357" as="targetPoint" />
            <mxPoint x="880.0000000000002" y="356.89" as="sourcePoint" />
          </mxGeometry>
        </mxCell>
        <mxCell id="RML3IU_rjjoTA2uPBB0K-77" value="MX" style="shape=trapezoid;perimeter=trapezoidPerimeter;whiteSpace=wrap;html=1;fixedSize=1;rotation=90;fontFamily=Times New Roman;" parent="1" vertex="1">
          <mxGeometry x="790" y="330" width="120" height="60" as="geometry" />
        </mxCell>
        <mxCell id="RML3IU_rjjoTA2uPBB0K-78" value="adder_a1 [7:0]" style="text;html=1;align=center;verticalAlign=middle;resizable=0;points=[];autosize=1;strokeColor=none;fillColor=none;fontFamily=Times New Roman;fontSize=14;" parent="1" vertex="1">
          <mxGeometry x="890" y="80" width="110" height="30" as="geometry" />
        </mxCell>
        <mxCell id="RML3IU_rjjoTA2uPBB0K-79" value="adder_b1 [7: 0]" style="text;html=1;align=center;verticalAlign=middle;resizable=0;points=[];autosize=1;strokeColor=none;fillColor=none;fontFamily=Times New Roman;fontSize=14;" parent="1" vertex="1">
          <mxGeometry x="873" y="330" width="110" height="30" as="geometry" />
        </mxCell>
        <mxCell id="RML3IU_rjjoTA2uPBB0K-82" value="cubic_root_result" style="text;html=1;align=center;verticalAlign=middle;resizable=0;points=[];autosize=1;strokeColor=none;fillColor=none;fontFamily=Times New Roman;fontSize=14;" parent="1" vertex="1">
          <mxGeometry x="692" y="303" width="120" height="30" as="geometry" />
        </mxCell>
        <mxCell id="RML3IU_rjjoTA2uPBB0K-83" value="square_root_result" style="text;html=1;align=center;verticalAlign=middle;resizable=0;points=[];autosize=1;strokeColor=none;fillColor=none;fontFamily=Times New Roman;fontSize=14;" parent="1" vertex="1">
          <mxGeometry x="705" y="50.000000000000014" width="130" height="30" as="geometry" />
        </mxCell>
        <mxCell id="RML3IU_rjjoTA2uPBB0K-89" value="sum_b1 [7:0]" style="text;html=1;align=center;verticalAlign=middle;resizable=0;points=[];autosize=1;strokeColor=none;fillColor=none;fontFamily=Times New Roman;fontSize=14;" parent="1" vertex="1">
          <mxGeometry x="495" y="210" width="100" height="30" as="geometry" />
        </mxCell>
        <mxCell id="RML3IU_rjjoTA2uPBB0K-90" value="sum_a1 [7:0]" style="text;html=1;align=center;verticalAlign=middle;resizable=0;points=[];autosize=1;strokeColor=none;fillColor=none;fontFamily=Times New Roman;fontSize=14;" parent="1" vertex="1">
          <mxGeometry x="495" y="250" width="100" height="30" as="geometry" />
        </mxCell>
        <mxCell id="RML3IU_rjjoTA2uPBB0K-92" value="sum_a1" style="text;html=1;align=center;verticalAlign=middle;resizable=0;points=[];autosize=1;strokeColor=none;fillColor=none;fontFamily=Times New Roman;fontSize=14;" parent="1" vertex="1">
          <mxGeometry x="735" y="110" width="70" height="30" as="geometry" />
        </mxCell>
        <mxCell id="RML3IU_rjjoTA2uPBB0K-94" value="sum_b1" style="text;html=1;align=center;verticalAlign=middle;resizable=0;points=[];autosize=1;strokeColor=none;fillColor=none;fontFamily=Times New Roman;fontSize=14;" parent="1" vertex="1">
          <mxGeometry x="733" y="378" width="70" height="30" as="geometry" />
        </mxCell>
        <mxCell id="0jB2gCp85myarq8GhbMV-9" style="edgeStyle=orthogonalEdgeStyle;rounded=0;orthogonalLoop=1;jettySize=auto;html=1;exitX=1;exitY=0.5;exitDx=0;exitDy=0;entryX=0.75;entryY=1;entryDx=0;entryDy=0;" parent="1" source="3wJiYjWD67_AuIehJIUR-2" target="0jB2gCp85myarq8GhbMV-1" edge="1">
          <mxGeometry relative="1" as="geometry" />
        </mxCell>
        <mxCell id="3wJiYjWD67_AuIehJIUR-2" value="&lt;div style=&quot;font-size: 14px;&quot;&gt;REG&lt;/div&gt;&lt;div style=&quot;font-size: 14px;&quot;&gt;state&lt;/div&gt;&lt;div style=&quot;font-size: 14px;&quot;&gt;[1:0]&lt;/div&gt;" style="rounded=0;whiteSpace=wrap;html=1;fontFamily=Times New Roman;fontSize=14;" parent="1" vertex="1">
          <mxGeometry x="801.67" y="970" width="70" height="100" as="geometry" />
        </mxCell>
        <mxCell id="3wJiYjWD67_AuIehJIUR-10" value="IDLE = 00&lt;div style=&quot;font-size: 14px;&quot;&gt;S1 = 01&lt;/div&gt;&lt;div style=&quot;font-size: 14px;&quot;&gt;S2 = 10&lt;/div&gt;" style="text;html=1;align=center;verticalAlign=middle;whiteSpace=wrap;rounded=0;fontFamily=Times New Roman;fontSize=14;" parent="1" vertex="1">
          <mxGeometry x="801.67" y="1090" width="70" height="30" as="geometry" />
        </mxCell>
        <mxCell id="3wJiYjWD67_AuIehJIUR-33" style="edgeStyle=orthogonalEdgeStyle;rounded=0;orthogonalLoop=1;jettySize=auto;html=1;exitX=-0.059;exitY=0.388;exitDx=0;exitDy=0;endArrow=none;endFill=0;startArrow=classicThin;startFill=1;fontSize=14;fontFamily=Times New Roman;exitPerimeter=0;" parent="1" edge="1">
          <mxGeometry relative="1" as="geometry">
            <mxPoint x="755.8" y="1040.2" as="targetPoint" />
            <mxPoint x="801.6699999999998" y="1039.9999999999998" as="sourcePoint" />
          </mxGeometry>
        </mxCell>
        <mxCell id="3wJiYjWD67_AuIehJIUR-34" value="clk_i" style="edgeLabel;html=1;align=center;verticalAlign=middle;resizable=0;points=[];fontSize=14;fontFamily=Times New Roman;" parent="3wJiYjWD67_AuIehJIUR-33" vertex="1" connectable="0">
          <mxGeometry x="0.9804" y="-1" relative="1" as="geometry">
            <mxPoint x="15" y="-12" as="offset" />
          </mxGeometry>
        </mxCell>
        <mxCell id="3wJiYjWD67_AuIehJIUR-35" style="edgeStyle=orthogonalEdgeStyle;rounded=0;orthogonalLoop=1;jettySize=auto;html=1;exitX=0.25;exitY=0;exitDx=0;exitDy=0;endArrow=none;endFill=0;startArrow=classicThin;startFill=1;fontSize=14;fontFamily=Times New Roman;" parent="1" edge="1">
          <mxGeometry relative="1" as="geometry">
            <mxPoint x="753.3399999999999" y="1060" as="targetPoint" />
            <mxPoint x="801.67" y="1060" as="sourcePoint" />
          </mxGeometry>
        </mxCell>
        <mxCell id="3wJiYjWD67_AuIehJIUR-36" value="rst_i" style="edgeLabel;html=1;align=center;verticalAlign=middle;resizable=0;points=[];fontSize=14;fontFamily=Times New Roman;" parent="3wJiYjWD67_AuIehJIUR-35" vertex="1" connectable="0">
          <mxGeometry x="0.9804" y="-1" relative="1" as="geometry">
            <mxPoint x="20" y="-9" as="offset" />
          </mxGeometry>
        </mxCell>
        <mxCell id="3wJiYjWD67_AuIehJIUR-38" value="adder_a2 [7:0]" style="text;html=1;align=center;verticalAlign=middle;resizable=0;points=[];autosize=1;strokeColor=none;fillColor=none;fontFamily=Times New Roman;fontSize=14;" parent="1" vertex="1">
          <mxGeometry x="600" y="500" width="110" height="30" as="geometry" />
        </mxCell>
        <mxCell id="3wJiYjWD67_AuIehJIUR-39" value="adder_b2 [7:0]" style="text;html=1;align=center;verticalAlign=middle;resizable=0;points=[];autosize=1;strokeColor=none;fillColor=none;fontFamily=Times New Roman;fontSize=14;" parent="1" vertex="1">
          <mxGeometry x="600" y="555" width="110" height="30" as="geometry" />
        </mxCell>
        <mxCell id="3wJiYjWD67_AuIehJIUR-40" value="sum_result2 [15:0]" style="text;html=1;align=center;verticalAlign=middle;resizable=0;points=[];autosize=1;strokeColor=none;fillColor=none;fontFamily=Times New Roman;fontSize=14;" parent="1" vertex="1">
          <mxGeometry x="230" y="460" width="130" height="30" as="geometry" />
        </mxCell>
        <mxCell id="3wJiYjWD67_AuIehJIUR-46" value="adder_a1 [7:0]" style="text;html=1;align=center;verticalAlign=middle;resizable=0;points=[];autosize=1;strokeColor=none;fillColor=none;fontFamily=Times New Roman;fontSize=14;" parent="1" vertex="1">
          <mxGeometry x="995" y="170" width="110" height="30" as="geometry" />
        </mxCell>
        <mxCell id="3wJiYjWD67_AuIehJIUR-47" value="adder_b1 [7:0]" style="text;html=1;align=center;verticalAlign=middle;resizable=0;points=[];autosize=1;strokeColor=none;fillColor=none;fontFamily=Times New Roman;fontSize=14;" parent="1" vertex="1">
          <mxGeometry x="995" y="220" width="110" height="30" as="geometry" />
        </mxCell>
        <mxCell id="3wJiYjWD67_AuIehJIUR-64" style="edgeStyle=orthogonalEdgeStyle;rounded=0;orthogonalLoop=1;jettySize=auto;html=1;exitX=1;exitY=0.5;exitDx=0;exitDy=0;fontFamily=Times New Roman;" parent="1" source="3wJiYjWD67_AuIehJIUR-57" edge="1">
          <mxGeometry relative="1" as="geometry">
            <mxPoint x="1450" y="340" as="targetPoint" />
          </mxGeometry>
        </mxCell>
        <mxCell id="3wJiYjWD67_AuIehJIUR-57" value="&lt;div style=&quot;font-size: 14px;&quot;&gt;REG&lt;/div&gt;&lt;div style=&quot;font-size: 14px;&quot;&gt;y_bo&lt;/div&gt;&lt;div style=&quot;font-size: 14px;&quot;&gt;[4:0]&lt;/div&gt;" style="rounded=0;whiteSpace=wrap;html=1;fontFamily=Times New Roman;fontSize=14;" parent="1" vertex="1">
          <mxGeometry x="1301.6699999999998" y="290" width="70" height="100" as="geometry" />
        </mxCell>
        <mxCell id="3wJiYjWD67_AuIehJIUR-59" style="edgeStyle=orthogonalEdgeStyle;rounded=0;orthogonalLoop=1;jettySize=auto;html=1;exitX=-0.059;exitY=0.388;exitDx=0;exitDy=0;endArrow=none;endFill=0;startArrow=classicThin;startFill=1;fontSize=14;fontFamily=Times New Roman;exitPerimeter=0;" parent="1" edge="1">
          <mxGeometry relative="1" as="geometry">
            <mxPoint x="1255.8" y="360.20000000000005" as="targetPoint" />
            <mxPoint x="1301.6699999999998" y="359.9999999999998" as="sourcePoint" />
          </mxGeometry>
        </mxCell>
        <mxCell id="3wJiYjWD67_AuIehJIUR-60" value="clk_i" style="edgeLabel;html=1;align=center;verticalAlign=middle;resizable=0;points=[];fontSize=14;fontFamily=Times New Roman;" parent="3wJiYjWD67_AuIehJIUR-59" vertex="1" connectable="0">
          <mxGeometry x="0.9804" y="-1" relative="1" as="geometry">
            <mxPoint x="15" y="-12" as="offset" />
          </mxGeometry>
        </mxCell>
        <mxCell id="3wJiYjWD67_AuIehJIUR-61" style="edgeStyle=orthogonalEdgeStyle;rounded=0;orthogonalLoop=1;jettySize=auto;html=1;exitX=0.25;exitY=0;exitDx=0;exitDy=0;endArrow=none;endFill=0;startArrow=classicThin;startFill=1;fontSize=14;fontFamily=Times New Roman;" parent="1" edge="1">
          <mxGeometry relative="1" as="geometry">
            <mxPoint x="1253.34" y="380" as="targetPoint" />
            <mxPoint x="1301.6699999999998" y="380" as="sourcePoint" />
          </mxGeometry>
        </mxCell>
        <mxCell id="3wJiYjWD67_AuIehJIUR-62" value="rst_i" style="edgeLabel;html=1;align=center;verticalAlign=middle;resizable=0;points=[];fontSize=14;fontFamily=Times New Roman;" parent="3wJiYjWD67_AuIehJIUR-61" vertex="1" connectable="0">
          <mxGeometry x="0.9804" y="-1" relative="1" as="geometry">
            <mxPoint x="20" y="-9" as="offset" />
          </mxGeometry>
        </mxCell>
        <mxCell id="3wJiYjWD67_AuIehJIUR-66" value="y_bo" style="text;html=1;align=center;verticalAlign=middle;resizable=0;points=[];autosize=1;strokeColor=none;fillColor=none;fontFamily=Times New Roman;fontSize=14;" parent="1" vertex="1">
          <mxGeometry x="1371.6699999999998" y="310" width="50" height="30" as="geometry" />
        </mxCell>
        <mxCell id="3wJiYjWD67_AuIehJIUR-69" value="busy_cubic_root" style="text;html=1;align=center;verticalAlign=middle;resizable=0;points=[];autosize=1;strokeColor=none;fillColor=none;fontFamily=Times New Roman;fontSize=14;" parent="1" vertex="1">
          <mxGeometry x="660" y="770" width="120" height="30" as="geometry" />
        </mxCell>
        <mxCell id="3wJiYjWD67_AuIehJIUR-70" value="busy_square_root" style="text;html=1;align=center;verticalAlign=middle;resizable=0;points=[];autosize=1;strokeColor=none;fillColor=none;fontFamily=Times New Roman;fontSize=14;" parent="1" vertex="1">
          <mxGeometry x="660" y="730" width="120" height="30" as="geometry" />
        </mxCell>
        <mxCell id="shmEQdJv6tE-2WSASP2i-51" style="edgeStyle=orthogonalEdgeStyle;rounded=0;orthogonalLoop=1;jettySize=auto;html=1;exitX=1;exitY=0.5;exitDx=0;exitDy=0;entryX=0;entryY=0.5;entryDx=0;entryDy=0;fontFamily=Times New Roman;" parent="1" source="3wJiYjWD67_AuIehJIUR-99" target="3wJiYjWD67_AuIehJIUR-113" edge="1">
          <mxGeometry relative="1" as="geometry" />
        </mxCell>
        <mxCell id="3wJiYjWD67_AuIehJIUR-99" value="CMP&lt;div&gt;==&lt;/div&gt;" style="triangle;whiteSpace=wrap;html=1;fontFamily=Times New Roman;" parent="1" vertex="1">
          <mxGeometry x="1095" y="479" width="71.67" height="80" as="geometry" />
        </mxCell>
        <mxCell id="3wJiYjWD67_AuIehJIUR-105" style="edgeStyle=orthogonalEdgeStyle;rounded=0;orthogonalLoop=1;jettySize=auto;html=1;exitX=0;exitY=0.5;exitDx=0;exitDy=0;entryX=0;entryY=0.5;entryDx=0;entryDy=0;fontFamily=Times New Roman;" parent="1" source="3wJiYjWD67_AuIehJIUR-104" target="3wJiYjWD67_AuIehJIUR-99" edge="1">
          <mxGeometry relative="1" as="geometry" />
        </mxCell>
        <mxCell id="3wJiYjWD67_AuIehJIUR-104" value="" style="triangle;whiteSpace=wrap;html=1;rotation=90;fontFamily=Times New Roman;" parent="1" vertex="1">
          <mxGeometry x="1066.3400000000001" y="593.34" width="16.67" height="26.66" as="geometry" />
        </mxCell>
        <mxCell id="3wJiYjWD67_AuIehJIUR-106" value="state == IDLE" style="text;html=1;align=center;verticalAlign=middle;resizable=0;points=[];autosize=1;strokeColor=none;fillColor=none;fontFamily=Times New Roman;fontSize=14;" parent="1" vertex="1">
          <mxGeometry x="1096.67" y="440" width="100" height="30" as="geometry" />
        </mxCell>
        <mxCell id="3wJiYjWD67_AuIehJIUR-113" value="" style="triangle;whiteSpace=wrap;html=1;fontFamily=Times New Roman;" parent="1" vertex="1">
          <mxGeometry x="1196.67" y="500" width="35" height="40" as="geometry" />
        </mxCell>
        <mxCell id="3wJiYjWD67_AuIehJIUR-115" style="edgeStyle=orthogonalEdgeStyle;rounded=0;orthogonalLoop=1;jettySize=auto;html=1;exitX=1;exitY=0.5;exitDx=0;exitDy=0;fontFamily=Times New Roman;" parent="1" source="3wJiYjWD67_AuIehJIUR-114" edge="1">
          <mxGeometry relative="1" as="geometry">
            <mxPoint x="1316.67" y="519" as="targetPoint" />
          </mxGeometry>
        </mxCell>
        <mxCell id="3wJiYjWD67_AuIehJIUR-114" value="" style="ellipse;whiteSpace=wrap;html=1;aspect=fixed;fontFamily=Times New Roman;" parent="1" vertex="1">
          <mxGeometry x="1231.67" y="514" width="10" height="10" as="geometry" />
        </mxCell>
        <mxCell id="3wJiYjWD67_AuIehJIUR-116" value="busy_o" style="text;html=1;align=center;verticalAlign=middle;resizable=0;points=[];autosize=1;strokeColor=none;fillColor=none;fontFamily=Times New Roman;fontSize=14;" parent="1" vertex="1">
          <mxGeometry x="1250.67" y="492" width="60" height="30" as="geometry" />
        </mxCell>
        <mxCell id="shmEQdJv6tE-2WSASP2i-6" style="edgeStyle=orthogonalEdgeStyle;rounded=0;orthogonalLoop=1;jettySize=auto;html=1;exitX=1;exitY=0.75;exitDx=0;exitDy=0;entryX=1.031;entryY=0.141;entryDx=0;entryDy=0;entryPerimeter=0;fontFamily=Times New Roman;" parent="1" edge="1">
          <mxGeometry relative="1" as="geometry">
            <mxPoint x="480" y="240" as="sourcePoint" />
            <mxPoint x="598.0999999999999" y="239.23000000000002" as="targetPoint" />
          </mxGeometry>
        </mxCell>
        <mxCell id="shmEQdJv6tE-2WSASP2i-7" style="edgeStyle=orthogonalEdgeStyle;rounded=0;orthogonalLoop=1;jettySize=auto;html=1;exitX=1;exitY=0.75;exitDx=0;exitDy=0;entryX=1.031;entryY=0.141;entryDx=0;entryDy=0;entryPerimeter=0;fontFamily=Times New Roman;" parent="1" edge="1">
          <mxGeometry relative="1" as="geometry">
            <mxPoint x="700" y="408.77" as="sourcePoint" />
            <mxPoint x="818.0999999999999" y="408" as="targetPoint" />
          </mxGeometry>
        </mxCell>
        <mxCell id="shmEQdJv6tE-2WSASP2i-9" style="edgeStyle=orthogonalEdgeStyle;rounded=0;orthogonalLoop=1;jettySize=auto;html=1;fontFamily=Times New Roman;" parent="1" edge="1">
          <mxGeometry relative="1" as="geometry">
            <mxPoint x="818" y="330.00352941176476" as="targetPoint" />
            <mxPoint x="700" y="330" as="sourcePoint" />
          </mxGeometry>
        </mxCell>
        <mxCell id="shmEQdJv6tE-2WSASP2i-15" style="edgeStyle=orthogonalEdgeStyle;rounded=0;orthogonalLoop=1;jettySize=auto;html=1;exitX=1;exitY=0.75;exitDx=0;exitDy=0;fontFamily=Times New Roman;" parent="1" edge="1">
          <mxGeometry relative="1" as="geometry">
            <mxPoint x="830" y="139.29000000000005" as="targetPoint" />
            <mxPoint x="710" y="139.09" as="sourcePoint" />
          </mxGeometry>
        </mxCell>
        <mxCell id="shmEQdJv6tE-2WSASP2i-17" style="edgeStyle=orthogonalEdgeStyle;rounded=0;orthogonalLoop=1;jettySize=auto;html=1;fontFamily=Times New Roman;" parent="1" edge="1">
          <mxGeometry relative="1" as="geometry">
            <mxPoint x="830" y="79.36272727272726" as="targetPoint" />
            <mxPoint x="710" y="79" as="sourcePoint" />
          </mxGeometry>
        </mxCell>
        <mxCell id="shmEQdJv6tE-2WSASP2i-18" style="edgeStyle=orthogonalEdgeStyle;rounded=0;orthogonalLoop=1;jettySize=auto;html=1;exitX=1;exitY=0.25;exitDx=0;exitDy=0;fontFamily=Times New Roman;" parent="1" edge="1">
          <mxGeometry relative="1" as="geometry">
            <mxPoint x="620" y="200.27272727272725" as="targetPoint" />
            <mxPoint x="480" y="200" as="sourcePoint" />
          </mxGeometry>
        </mxCell>
        <mxCell id="shmEQdJv6tE-2WSASP2i-21" style="edgeStyle=orthogonalEdgeStyle;rounded=0;orthogonalLoop=1;jettySize=auto;html=1;exitX=0.75;exitY=0;exitDx=0;exitDy=0;fontFamily=Times New Roman;" parent="1" edge="1">
          <mxGeometry relative="1" as="geometry">
            <mxPoint x="1095" y="249.37" as="targetPoint" />
            <mxPoint x="1005.0000000000002" y="249.26" as="sourcePoint" />
          </mxGeometry>
        </mxCell>
        <mxCell id="shmEQdJv6tE-2WSASP2i-24" style="edgeStyle=orthogonalEdgeStyle;rounded=0;orthogonalLoop=1;jettySize=auto;html=1;fontFamily=Times New Roman;" parent="1" edge="1">
          <mxGeometry relative="1" as="geometry">
            <mxPoint x="1095" y="199.2826086956522" as="targetPoint" />
            <mxPoint x="1010" y="199" as="sourcePoint" />
          </mxGeometry>
        </mxCell>
        <mxCell id="shmEQdJv6tE-2WSASP2i-26" value="adder_mx" style="text;html=1;align=center;verticalAlign=middle;resizable=0;points=[];autosize=1;strokeColor=none;fillColor=none;fontFamily=Times New Roman;" parent="1" vertex="1">
          <mxGeometry x="916" y="760" width="70" height="30" as="geometry" />
        </mxCell>
        <mxCell id="shmEQdJv6tE-2WSASP2i-30" style="edgeStyle=orthogonalEdgeStyle;rounded=0;orthogonalLoop=1;jettySize=auto;html=1;exitX=1;exitY=0.5;exitDx=0;exitDy=0;fontFamily=Times New Roman;" parent="1" edge="1">
          <mxGeometry relative="1" as="geometry">
            <mxPoint x="1095" y="492.1538461538462" as="targetPoint" />
            <mxPoint x="1020" y="492" as="sourcePoint" />
          </mxGeometry>
        </mxCell>
        <mxCell id="shmEQdJv6tE-2WSASP2i-31" value="busy_cmp" style="text;html=1;align=center;verticalAlign=middle;resizable=0;points=[];autosize=1;strokeColor=none;fillColor=none;fontFamily=Times New Roman;" parent="1" vertex="1">
          <mxGeometry x="1025" y="470" width="70" height="30" as="geometry" />
        </mxCell>
        <mxCell id="shmEQdJv6tE-2WSASP2i-34" style="edgeStyle=orthogonalEdgeStyle;rounded=0;orthogonalLoop=1;jettySize=auto;html=1;exitX=1;exitY=0.5;exitDx=0;exitDy=0;fontFamily=Times New Roman;entryX=1;entryY=0.5;entryDx=0;entryDy=0;" parent="1" target="RML3IU_rjjoTA2uPBB0K-76" edge="1">
          <mxGeometry relative="1" as="geometry">
            <mxPoint x="860" y="222.1538461538462" as="targetPoint" />
            <mxPoint x="785" y="222" as="sourcePoint" />
          </mxGeometry>
        </mxCell>
        <mxCell id="shmEQdJv6tE-2WSASP2i-35" value="adder_mx" style="text;html=1;align=center;verticalAlign=middle;resizable=0;points=[];autosize=1;strokeColor=none;fillColor=none;fontFamily=Times New Roman;" parent="1" vertex="1">
          <mxGeometry x="785" y="195" width="70" height="30" as="geometry" />
        </mxCell>
        <mxCell id="shmEQdJv6tE-2WSASP2i-41" style="edgeStyle=orthogonalEdgeStyle;rounded=0;orthogonalLoop=1;jettySize=auto;html=1;exitX=1;exitY=0.5;exitDx=0;exitDy=0;fontFamily=Times New Roman;" parent="1" edge="1">
          <mxGeometry relative="1" as="geometry">
            <mxPoint x="1301.6699999999998" y="320.2962962962963" as="targetPoint" />
            <mxPoint x="1166.6699999999998" y="320" as="sourcePoint" />
          </mxGeometry>
        </mxCell>
        <mxCell id="shmEQdJv6tE-2WSASP2i-42" value="sum_result1 [15:0]" style="text;html=1;align=center;verticalAlign=middle;resizable=0;points=[];autosize=1;strokeColor=none;fillColor=none;fontFamily=Times New Roman;fontSize=14;" parent="1" vertex="1">
          <mxGeometry x="1166.6699999999998" y="290" width="130" height="30" as="geometry" />
        </mxCell>
        <mxCell id="shmEQdJv6tE-2WSASP2i-45" style="edgeStyle=orthogonalEdgeStyle;rounded=0;orthogonalLoop=1;jettySize=auto;html=1;exitX=1;exitY=0.5;exitDx=0;exitDy=0;fontFamily=Times New Roman;" parent="1" edge="1">
          <mxGeometry relative="1" as="geometry">
            <mxPoint x="362.5" y="181.2962962962963" as="targetPoint" />
            <mxPoint x="227.5" y="181" as="sourcePoint" />
          </mxGeometry>
        </mxCell>
        <mxCell id="shmEQdJv6tE-2WSASP2i-46" value="sum_result1 [15:0]" style="text;html=1;align=center;verticalAlign=middle;resizable=0;points=[];autosize=1;strokeColor=none;fillColor=none;fontFamily=Times New Roman;fontSize=14;" parent="1" vertex="1">
          <mxGeometry x="227.5" y="151.00000000000003" width="130" height="30" as="geometry" />
        </mxCell>
        <mxCell id="0jB2gCp85myarq8GhbMV-8" style="edgeStyle=orthogonalEdgeStyle;rounded=0;orthogonalLoop=1;jettySize=auto;html=1;exitX=1;exitY=0.5;exitDx=0;exitDy=0;" parent="1" edge="1">
          <mxGeometry relative="1" as="geometry">
            <mxPoint x="981" y="785" as="targetPoint" />
            <mxPoint x="916" y="785" as="sourcePoint" />
          </mxGeometry>
        </mxCell>
        <mxCell id="0jB2gCp85myarq8GhbMV-10" style="edgeStyle=orthogonalEdgeStyle;rounded=0;orthogonalLoop=1;jettySize=auto;html=1;exitX=0.25;exitY=1;exitDx=0;exitDy=0;entryX=0;entryY=0.25;entryDx=0;entryDy=0;" parent="1" source="0jB2gCp85myarq8GhbMV-1" target="3wJiYjWD67_AuIehJIUR-2" edge="1">
          <mxGeometry relative="1" as="geometry" />
        </mxCell>
        <mxCell id="0jB2gCp85myarq8GhbMV-11" style="edgeStyle=orthogonalEdgeStyle;rounded=0;orthogonalLoop=1;jettySize=auto;html=1;exitX=1;exitY=0.25;exitDx=0;exitDy=0;" parent="1" edge="1">
          <mxGeometry relative="1" as="geometry">
            <mxPoint x="981" y="738.3333333333335" as="targetPoint" />
            <mxPoint x="916" y="737.5" as="sourcePoint" />
          </mxGeometry>
        </mxCell>
        <mxCell id="0jB2gCp85myarq8GhbMV-24" style="edgeStyle=orthogonalEdgeStyle;rounded=0;orthogonalLoop=1;jettySize=auto;html=1;exitX=1;exitY=0.75;exitDx=0;exitDy=0;" parent="1" edge="1">
          <mxGeometry relative="1" as="geometry">
            <mxPoint x="1001" y="832" as="targetPoint" />
            <mxPoint x="916" y="832.5" as="sourcePoint" />
          </mxGeometry>
        </mxCell>
        <mxCell id="0jB2gCp85myarq8GhbMV-25" style="edgeStyle=orthogonalEdgeStyle;rounded=0;orthogonalLoop=1;jettySize=auto;html=1;exitX=1;exitY=0.75;exitDx=0;exitDy=0;" parent="1" source="0jB2gCp85myarq8GhbMV-1" edge="1">
          <mxGeometry relative="1" as="geometry">
            <mxPoint x="1000" y="863.3333333333335" as="targetPoint" />
          </mxGeometry>
        </mxCell>
        <mxCell id="0jB2gCp85myarq8GhbMV-1" value="CONTROL&lt;div&gt;UNIT&lt;/div&gt;" style="rounded=0;whiteSpace=wrap;html=1;fontFamily=Times New Roman;fontStyle=1" parent="1" vertex="1">
          <mxGeometry x="785" y="720" width="130" height="190" as="geometry" />
        </mxCell>
        <mxCell id="0jB2gCp85myarq8GhbMV-3" style="edgeStyle=orthogonalEdgeStyle;rounded=0;orthogonalLoop=1;jettySize=auto;html=1;exitX=-0.059;exitY=0.388;exitDx=0;exitDy=0;endArrow=none;endFill=0;startArrow=classicThin;startFill=1;fontSize=14;fontFamily=Times New Roman;exitPerimeter=0;" parent="1" edge="1">
          <mxGeometry relative="1" as="geometry">
            <mxPoint x="737.46" y="880.2" as="targetPoint" />
            <mxPoint x="783.3299999999999" y="879.9999999999998" as="sourcePoint" />
          </mxGeometry>
        </mxCell>
        <mxCell id="0jB2gCp85myarq8GhbMV-4" value="clk_i" style="edgeLabel;html=1;align=center;verticalAlign=middle;resizable=0;points=[];fontSize=14;fontFamily=Times New Roman;" parent="0jB2gCp85myarq8GhbMV-3" vertex="1" connectable="0">
          <mxGeometry x="0.9804" y="-1" relative="1" as="geometry">
            <mxPoint x="15" y="-12" as="offset" />
          </mxGeometry>
        </mxCell>
        <mxCell id="0jB2gCp85myarq8GhbMV-5" style="edgeStyle=orthogonalEdgeStyle;rounded=0;orthogonalLoop=1;jettySize=auto;html=1;exitX=0.25;exitY=0;exitDx=0;exitDy=0;endArrow=none;endFill=0;startArrow=classicThin;startFill=1;fontSize=14;fontFamily=Times New Roman;" parent="1" edge="1">
          <mxGeometry relative="1" as="geometry">
            <mxPoint x="735" y="900" as="targetPoint" />
            <mxPoint x="783.33" y="900" as="sourcePoint" />
          </mxGeometry>
        </mxCell>
        <mxCell id="0jB2gCp85myarq8GhbMV-6" value="rst_i" style="edgeLabel;html=1;align=center;verticalAlign=middle;resizable=0;points=[];fontSize=14;fontFamily=Times New Roman;" parent="0jB2gCp85myarq8GhbMV-5" vertex="1" connectable="0">
          <mxGeometry x="0.9804" y="-1" relative="1" as="geometry">
            <mxPoint x="20" y="-9" as="offset" />
          </mxGeometry>
        </mxCell>
        <mxCell id="0jB2gCp85myarq8GhbMV-12" value="start_sqrt" style="text;html=1;align=center;verticalAlign=middle;resizable=0;points=[];autosize=1;strokeColor=none;fillColor=none;fontFamily=Times New Roman;fontSize=14;" parent="1" vertex="1">
          <mxGeometry x="910" y="710" width="80" height="30" as="geometry" />
        </mxCell>
        <mxCell id="0jB2gCp85myarq8GhbMV-15" value="start_cbrt" style="text;html=1;align=center;verticalAlign=middle;resizable=0;points=[];autosize=1;strokeColor=none;fillColor=none;fontFamily=Times New Roman;fontSize=14;" parent="1" vertex="1">
          <mxGeometry x="910" y="800" width="80" height="30" as="geometry" />
        </mxCell>
        <mxCell id="0jB2gCp85myarq8GhbMV-16" style="edgeStyle=orthogonalEdgeStyle;rounded=0;orthogonalLoop=1;jettySize=auto;html=1;fontFamily=Times New Roman;" parent="1" edge="1">
          <mxGeometry relative="1" as="geometry">
            <mxPoint x="360" y="250.27272727272725" as="targetPoint" />
            <mxPoint x="230" y="250" as="sourcePoint" />
            <Array as="points">
              <mxPoint x="290.5" y="251" />
            </Array>
          </mxGeometry>
        </mxCell>
        <mxCell id="0jB2gCp85myarq8GhbMV-17" style="edgeStyle=orthogonalEdgeStyle;rounded=0;orthogonalLoop=1;jettySize=auto;html=1;fontFamily=Times New Roman;" parent="1" edge="1">
          <mxGeometry relative="1" as="geometry">
            <mxPoint x="360" y="536.0927272727272" as="targetPoint" />
            <mxPoint x="240" y="536" as="sourcePoint" />
            <Array as="points">
              <mxPoint x="290.5" y="536.8199999999999" />
            </Array>
          </mxGeometry>
        </mxCell>
        <mxCell id="0jB2gCp85myarq8GhbMV-19" style="edgeStyle=orthogonalEdgeStyle;rounded=0;orthogonalLoop=1;jettySize=auto;html=1;fontFamily=Times New Roman;" parent="1" edge="1">
          <mxGeometry relative="1" as="geometry">
            <mxPoint x="785" y="760.2380952380952" as="targetPoint" />
            <mxPoint x="670" y="760" as="sourcePoint" />
          </mxGeometry>
        </mxCell>
        <mxCell id="0jB2gCp85myarq8GhbMV-20" style="edgeStyle=orthogonalEdgeStyle;rounded=0;orthogonalLoop=1;jettySize=auto;html=1;fontFamily=Times New Roman;" parent="1" edge="1">
          <mxGeometry relative="1" as="geometry">
            <mxPoint x="785" y="800.2380952380952" as="targetPoint" />
            <mxPoint x="680" y="800" as="sourcePoint" />
          </mxGeometry>
        </mxCell>
        <mxCell id="0jB2gCp85myarq8GhbMV-21" style="edgeStyle=orthogonalEdgeStyle;rounded=0;orthogonalLoop=1;jettySize=auto;html=1;exitX=1;exitY=0.5;exitDx=0;exitDy=0;fontFamily=Times New Roman;entryX=1;entryY=0.5;entryDx=0;entryDy=0;" parent="1" edge="1">
          <mxGeometry relative="1" as="geometry">
            <mxPoint x="853.53" y="410" as="targetPoint" />
            <mxPoint x="778.53" y="472" as="sourcePoint" />
          </mxGeometry>
        </mxCell>
        <mxCell id="0jB2gCp85myarq8GhbMV-22" value="adder_mx" style="text;html=1;align=center;verticalAlign=middle;resizable=0;points=[];autosize=1;strokeColor=none;fillColor=none;fontFamily=Times New Roman;" parent="1" vertex="1">
          <mxGeometry x="778.53" y="445" width="70" height="30" as="geometry" />
        </mxCell>
        <mxCell id="0jB2gCp85myarq8GhbMV-26" value="busy_cmp" style="text;html=1;align=center;verticalAlign=middle;resizable=0;points=[];autosize=1;strokeColor=none;fillColor=none;fontFamily=Times New Roman;fontSize=14;" parent="1" vertex="1">
          <mxGeometry x="910" y="840" width="80" height="30" as="geometry" />
        </mxCell>
        <mxCell id="WRuqJv1H_bPf4de5cgkY-6" value="start_i" style="text;html=1;align=center;verticalAlign=middle;resizable=0;points=[];autosize=1;strokeColor=none;fillColor=none;fontFamily=Times New Roman;fontSize=14;" vertex="1" parent="1">
          <mxGeometry x="690" y="808.33" width="60" height="30" as="geometry" />
        </mxCell>
        <mxCell id="WRuqJv1H_bPf4de5cgkY-7" style="edgeStyle=orthogonalEdgeStyle;rounded=0;orthogonalLoop=1;jettySize=auto;html=1;fontFamily=Times New Roman;fontSize=14;" edge="1" parent="1">
          <mxGeometry relative="1" as="geometry">
            <mxPoint x="785" y="838.5680952380952" as="targetPoint" />
            <mxPoint x="680" y="838.33" as="sourcePoint" />
          </mxGeometry>
        </mxCell>
      </root>
    </mxGraphModel>
  </diagram>
</mxfile>
